<svg width="800" height="658" viewBox="0 0 800 658" fill="none" xmlns="http://www.w3.org/2000/svg">
<path d="M409.812 639.589C577.134 639.589 712.776 503.948 712.776 336.625C712.776 169.303 577.134 33.6609 409.812 33.6609C242.489 33.6609 106.848 169.303 106.848 336.625C106.848 503.948 242.489 639.589 409.812 639.589Z" fill="url(#paint0_linear_1339_9998)"/>
<path fill-rule="evenodd" clip-rule="evenodd" d="M7.2353 189.422C60.3296 157.539 120.477 151.47 178.065 153.378C186.293 153.65 192.743 160.542 192.47 168.771C192.198 176.999 185.306 183.449 177.077 183.176C121.809 181.345 68.4708 187.428 22.5841 214.982C15.5257 219.221 6.36785 216.935 2.12941 209.876C-2.10904 202.818 0.176947 193.66 7.2353 189.422Z" fill="url(#paint1_linear_1339_9998)"/>
<g filter="url(#filter0_f_1339_9998)">
<ellipse cx="339.912" cy="292.508" rx="182.673" ry="31.2162" fill="#C4C1FE"/>
</g>
<g filter="url(#filter1_f_1339_9998)">
<ellipse cx="649.762" cy="290.195" rx="83.2433" ry="31.2162" fill="#40DFF0" fill-opacity="0.6"/>
</g>
<g filter="url(#filter2_f_1339_9998)">
<ellipse cx="450.903" cy="604.67" rx="182.673" ry="31.2162" fill="#C4C1FE"/>
</g>
<path fill-rule="evenodd" clip-rule="evenodd" d="M797.87 431.651C802.109 438.71 799.823 447.868 792.765 452.106C739.676 483.985 679.498 490.056 621.914 488.15C613.686 487.878 607.236 480.986 607.508 472.757C607.781 464.529 614.672 458.079 622.901 458.351C678.168 460.181 731.536 454.096 777.416 426.545C784.474 422.307 793.632 424.593 797.87 431.651Z" fill="url(#paint2_linear_1339_9998)"/>
<path d="M388.512 602.732H539.929C590.699 602.732 631.865 547.745 631.865 479.894C631.865 412.044 590.699 357.036 539.929 357.036H388.512C419.924 357.036 447.652 378.077 464.22 410.277C474.882 431.958 480.426 455.797 480.426 479.958C480.426 504.119 474.882 527.958 464.22 549.64C447.652 581.755 419.924 602.732 388.512 602.732Z" fill="url(#paint3_linear_1339_9998)"/>
<path d="M497.378 402.142C478.893 366.3 447.949 342.832 412.916 342.832H379.077C322.428 342.832 276.492 404.208 276.492 479.895C276.492 555.582 322.428 616.937 379.077 616.958H413.023C448.055 616.958 479.042 593.532 497.484 557.648C509.372 533.46 515.554 506.868 515.554 479.916C515.554 452.965 509.372 426.373 497.484 402.185L497.378 402.142Z" fill="url(#paint4_linear_1339_9998)"/>
<path d="M463.155 402.142C444.712 366.364 413.832 342.917 378.864 342.832C322.258 342.832 276.386 404.25 276.386 479.895C276.386 555.54 322.258 616.873 378.864 616.958C413.832 616.958 444.712 593.532 463.155 557.648C475.056 533.464 481.246 506.87 481.246 479.916C481.246 452.962 475.056 426.368 463.155 402.185V402.142Z" fill="url(#paint5_linear_1339_9998)"/>
<path d="M392.374 454.624C387.268 463.603 378.721 469.482 369.044 469.482H359.697C344.05 469.482 331.361 454.106 331.361 435.145C331.361 416.184 344.05 400.813 359.697 400.808H369.074C378.75 400.808 387.309 406.676 392.404 415.666C395.687 421.726 397.395 428.388 397.395 435.14C397.395 441.892 395.687 448.554 392.404 454.613L392.374 454.624Z" fill="url(#paint6_linear_1339_9998)"/>
<path d="M392.374 547.071C387.268 556.05 378.721 561.929 369.044 561.929H359.697C344.05 561.929 331.361 546.553 331.361 527.592C331.361 508.63 344.05 493.26 359.697 493.254H369.074C378.75 493.254 387.309 499.123 392.404 508.113C395.687 514.173 397.395 520.835 397.395 527.586C397.395 534.338 395.687 541 392.404 547.06L392.374 547.071Z" fill="url(#paint7_linear_1339_9998)"/>
<path d="M381.931 454.624C376.937 463.587 368.576 469.461 359.108 469.482C343.782 469.482 331.361 454.096 331.361 435.145C331.361 416.194 343.782 400.829 359.108 400.808C368.576 400.808 376.937 406.676 381.931 415.666C385.154 421.725 386.829 428.387 386.829 435.14C386.829 441.892 385.154 448.555 381.931 454.613V454.624Z" fill="#958FFF"/>
<path d="M381.931 547.071C376.937 556.034 368.576 561.908 359.108 561.929C343.782 561.929 331.361 546.542 331.361 527.592C331.361 508.641 343.782 493.276 359.108 493.254C368.576 493.254 376.937 499.123 381.931 508.113C385.154 514.172 386.829 520.834 386.829 527.586C386.829 534.339 385.154 541.001 381.931 547.06V547.071Z" fill="#958FFF"/>
<path d="M411.489 301.401H260.072C209.301 301.401 168.114 246.413 168.114 178.563C168.114 110.713 209.301 55.7048 260.072 55.7048H411.489C380.077 55.7048 352.349 76.7456 335.78 108.946C324.914 130.562 319.351 154.455 319.552 178.649C319.351 202.835 324.913 226.721 335.78 248.33C352.349 280.36 380.077 301.401 411.489 301.401Z" fill="url(#paint8_linear_1339_9998)"/>
<path d="M302.603 100.895C321.109 65.0535 352.053 41.585 387.085 41.585H421.031C477.68 41.585 523.616 102.961 523.616 178.648C523.616 254.335 477.68 315.69 421.031 315.711H387.085C352.053 315.711 321.067 292.285 302.603 256.401C290.503 232.281 284.306 205.632 284.522 178.648C284.306 151.664 290.503 125.015 302.603 100.895V100.895Z" fill="url(#paint9_linear_1339_9998)"/>
<path d="M336.824 100.895C355.288 65.1174 386.147 41.6701 421.136 41.585C477.742 41.585 523.614 103.004 523.614 178.648C523.614 254.293 477.742 315.626 421.136 315.69C386.147 315.69 355.288 292.264 336.824 256.401C324.725 232.281 318.528 205.632 318.744 178.648C318.528 151.664 324.725 125.015 336.824 100.895Z" fill="url(#paint10_linear_1339_9998)"/>
<path d="M429.953 155.18C441.021 155.18 449.993 142.727 449.993 127.367C449.993 112.006 441.021 99.5537 429.953 99.5537C418.885 99.5537 409.913 112.006 409.913 127.367C409.913 142.727 418.885 155.18 429.953 155.18Z" fill="url(#paint11_linear_1339_9998)"/>
<path d="M430.412 160.445C444.27 160.445 455.505 145.663 455.505 127.428C455.505 109.194 444.27 94.4116 430.412 94.4116C416.554 94.4116 405.319 109.194 405.319 127.428C405.319 145.663 416.554 160.445 430.412 160.445Z" fill="#7F79F6"/>
<path d="M430.412 266.099C444.27 266.099 455.505 251.317 455.505 233.082C455.505 214.847 444.27 200.065 430.412 200.065C416.554 200.065 405.319 214.847 405.319 233.082C405.319 251.317 416.554 266.099 430.412 266.099Z" fill="#7F79F6"/>
<path d="M134.386 350.683C134.903 348.539 137.953 348.539 138.471 350.683L146.918 385.679C147.103 386.445 147.701 387.043 148.468 387.228L183.463 395.676C185.607 396.193 185.607 399.243 183.463 399.76L148.468 408.208C147.701 408.393 147.103 408.991 146.918 409.757L138.471 444.753C137.953 446.897 134.903 446.897 134.386 444.753L125.938 409.757C125.753 408.991 125.155 408.393 124.389 408.208L89.3933 399.76C87.2493 399.243 87.2493 396.193 89.3933 395.676L124.389 387.228C125.155 387.043 125.753 386.445 125.938 385.679L134.386 350.683Z" fill="url(#paint12_linear_1339_9998)"/>
<path d="M429.953 155.18C441.021 155.18 449.993 142.727 449.993 127.367C449.993 112.006 441.021 99.5537 429.953 99.5537C418.885 99.5537 409.913 112.006 409.913 127.367C409.913 142.727 418.885 155.18 429.953 155.18Z" fill="url(#paint13_linear_1339_9998)"/>
<path d="M429.953 260.833C441.021 260.833 449.993 248.381 449.993 233.02C449.993 217.66 441.021 205.207 429.953 205.207C418.885 205.207 409.913 217.66 409.913 233.02C409.913 248.381 418.885 260.833 429.953 260.833Z" fill="url(#paint14_linear_1339_9998)"/>
<path d="M594.535 8.46072C595.053 6.31669 598.102 6.3167 598.62 8.46073L607.068 43.4561C607.253 44.2223 607.851 44.8205 608.617 45.0055L643.612 53.4532C645.756 53.9707 645.756 57.0203 643.612 57.5379L608.617 65.9856C607.851 66.1706 607.253 66.7688 607.068 67.535L598.62 102.53C598.102 104.674 595.053 104.674 594.535 102.53L586.087 67.535C585.903 66.7688 585.304 66.1706 584.538 65.9856L549.543 57.5379C547.399 57.0203 547.399 53.9707 549.543 53.4532L584.538 45.0055C585.304 44.8205 585.903 44.2223 586.087 43.4561L594.535 8.46072Z" fill="url(#paint15_linear_1339_9998)"/>
<path d="M151.302 261.292C151.302 269.506 144.644 276.165 136.429 276.165C128.215 276.165 121.556 269.506 121.556 261.292C121.556 253.078 128.215 246.419 136.429 246.419C144.644 246.419 151.302 253.078 151.302 261.292Z" stroke="url(#paint16_linear_1339_9998)" stroke-width="2.6263"/>
<path d="M676.74 556.985C676.74 565.199 670.081 571.858 661.867 571.858C653.653 571.858 646.994 565.199 646.994 556.985C646.994 548.771 653.653 542.112 661.867 542.112C670.081 542.112 676.74 548.771 676.74 556.985Z" stroke="url(#paint17_linear_1339_9998)" stroke-width="2.6263"/>
<path d="M648.562 342.813C648.229 341.507 649.435 340.331 650.732 340.695L683.45 349.889C684.748 350.254 685.164 351.887 684.199 352.828L659.878 376.565C658.913 377.507 657.291 377.051 656.958 375.745L648.562 342.813Z" fill="url(#paint18_linear_1339_9998)"/>
<path d="M238.253 569.958C239.56 569.626 240.735 570.834 240.369 572.131L231.132 604.837C230.766 606.134 229.133 606.548 228.192 605.582L204.486 581.23C203.546 580.264 204.004 578.643 205.311 578.312L238.253 569.958Z" fill="url(#paint19_linear_1339_9998)"/>
<path d="M732.185 217.682C729.969 234.384 723.554 250.251 713.54 263.801C703.526 277.35 690.239 288.139 674.923 295.159C659.607 302.179 642.761 305.2 625.959 303.941C609.158 302.682 592.95 297.184 578.851 287.96L540.518 301.014C539.354 301.403 538.104 301.449 536.915 301.146C535.726 300.843 534.65 300.204 533.814 299.306C532.979 298.408 532.419 297.288 532.203 296.08C531.987 294.872 532.124 293.628 532.596 292.496L548.014 255.696C539.859 242.046 535.09 226.642 534.105 210.771C533.12 194.901 535.949 179.026 542.354 164.472C548.759 149.918 558.554 137.109 570.922 127.115C583.289 117.121 597.869 110.232 613.443 107.025C629.017 103.817 645.133 104.385 660.443 108.679C675.753 112.973 689.812 120.869 701.447 131.708C713.081 142.547 721.952 156.013 727.318 170.981C732.684 185.949 734.389 201.984 732.291 217.746L732.185 217.682Z" fill="url(#paint20_linear_1339_9998)"/>
<path d="M338.649 18.151C338.649 26.3652 331.99 33.0241 323.776 33.0241C315.562 33.0241 308.903 26.3652 308.903 18.151C308.903 9.93688 315.562 3.27799 323.776 3.27799C331.99 3.27799 338.649 9.93688 338.649 18.151Z" stroke="url(#paint21_linear_1339_9998)" stroke-width="2.6263"/>
<path d="M632.597 184.143C636.113 184.143 638.569 181.743 638.569 178.395C638.569 174.991 636.113 172.591 632.597 172.591C629.137 172.591 626.626 174.991 626.626 178.395C626.626 181.743 629.137 184.143 632.597 184.143ZM638.066 143.18H627.128V154.118L629.918 169.242H635.22L638.066 154.118V143.18Z" fill="white"/>
<rect x="246.839" y="411.373" width="132.067" height="47.5441" rx="23.772" fill="url(#paint22_linear_1339_9998)"/>
<rect x="246.839" y="503.82" width="132.067" height="47.5441" rx="23.772" fill="url(#paint23_linear_1339_9998)"/>
<defs>
<filter id="filter0_f_1339_9998" x="135.353" y="239.405" width="409.117" height="106.204" filterUnits="userSpaceOnUse" color-interpolation-filters="sRGB">
<feFlood flood-opacity="0" result="BackgroundImageFix"/>
<feBlend mode="normal" in="SourceGraphic" in2="BackgroundImageFix" result="shape"/>
<feGaussianBlur stdDeviation="10.9429" result="effect1_foregroundBlur_1339_9998"/>
</filter>
<filter id="filter1_f_1339_9998" x="544.633" y="237.093" width="210.258" height="106.204" filterUnits="userSpaceOnUse" color-interpolation-filters="sRGB">
<feFlood flood-opacity="0" result="BackgroundImageFix"/>
<feBlend mode="normal" in="SourceGraphic" in2="BackgroundImageFix" result="shape"/>
<feGaussianBlur stdDeviation="10.9429" result="effect1_foregroundBlur_1339_9998"/>
</filter>
<filter id="filter2_f_1339_9998" x="246.345" y="551.568" width="409.117" height="106.204" filterUnits="userSpaceOnUse" color-interpolation-filters="sRGB">
<feFlood flood-opacity="0" result="BackgroundImageFix"/>
<feBlend mode="normal" in="SourceGraphic" in2="BackgroundImageFix" result="shape"/>
<feGaussianBlur stdDeviation="10.9429" result="effect1_foregroundBlur_1339_9998"/>
</filter>
<linearGradient id="paint0_linear_1339_9998" x1="407.476" y1="-64.9917" x2="413.683" y2="998.973" gradientUnits="userSpaceOnUse">
<stop stop-color="white" stop-opacity="0"/>
<stop offset="1" stop-color="#9DB3FF"/>
</linearGradient>
<linearGradient id="paint1_linear_1339_9998" x1="170.24" y1="217.54" x2="43.7938" y2="93.2679" gradientUnits="userSpaceOnUse">
<stop stop-color="#5149F2"/>
<stop offset="1" stop-color="#F7F7FF"/>
</linearGradient>
<linearGradient id="paint2_linear_1339_9998" x1="622.013" y1="509.866" x2="744.018" y2="592.005" gradientUnits="userSpaceOnUse">
<stop stop-color="#5149F2"/>
<stop offset="1" stop-color="#F7F7FF"/>
</linearGradient>
<linearGradient id="paint3_linear_1339_9998" x1="596.131" y1="528.07" x2="441.199" y2="235.574" gradientUnits="userSpaceOnUse">
<stop stop-color="#5149F2"/>
<stop offset="1" stop-color="#F7F7FF"/>
</linearGradient>
<linearGradient id="paint4_linear_1339_9998" x1="480.45" y1="533.657" x2="295.851" y2="226.806" gradientUnits="userSpaceOnUse">
<stop stop-color="#5149F2"/>
<stop offset="1" stop-color="#F7F7FF"/>
</linearGradient>
<linearGradient id="paint5_linear_1339_9998" x1="294.29" y1="497.668" x2="481.811" y2="496.347" gradientUnits="userSpaceOnUse">
<stop stop-color="#B9B6FF"/>
<stop offset="1" stop-color="#C6C4F9"/>
</linearGradient>
<linearGradient id="paint6_linear_1339_9998" x1="407.96" y1="453.634" x2="349.226" y2="371.629" gradientUnits="userSpaceOnUse">
<stop stop-color="#5149F2"/>
<stop offset="1" stop-color="#F7F7FF"/>
</linearGradient>
<linearGradient id="paint7_linear_1339_9998" x1="407.96" y1="546.081" x2="349.226" y2="464.076" gradientUnits="userSpaceOnUse">
<stop stop-color="#5149F2"/>
<stop offset="1" stop-color="#F7F7FF"/>
</linearGradient>
<linearGradient id="paint8_linear_1339_9998" x1="232.311" y1="312.628" x2="220.827" y2="-65.7686" gradientUnits="userSpaceOnUse">
<stop stop-color="#5149F2"/>
<stop offset="1" stop-color="#F7F7FF"/>
</linearGradient>
<linearGradient id="paint9_linear_1339_9998" x1="427.772" y1="255.839" x2="376.264" y2="-82.0996" gradientUnits="userSpaceOnUse">
<stop stop-color="#5149F2"/>
<stop offset="1" stop-color="#F7F7FF"/>
</linearGradient>
<linearGradient id="paint10_linear_1339_9998" x1="336.644" y1="196.409" x2="524.179" y2="195.088" gradientUnits="userSpaceOnUse">
<stop stop-color="#B9B6FF"/>
<stop offset="1" stop-color="#C6C4F9"/>
</linearGradient>
<linearGradient id="paint11_linear_1339_9998" x1="390.782" y1="156.213" x2="547.168" y2="144.398" gradientUnits="userSpaceOnUse">
<stop stop-color="#5149F2"/>
<stop offset="1" stop-color="#F7F7FF"/>
</linearGradient>
<linearGradient id="paint12_linear_1339_9998" x1="175.626" y1="419.486" x2="106.014" y2="286.801" gradientUnits="userSpaceOnUse">
<stop stop-color="#5149F2"/>
<stop offset="1" stop-color="#F7F7FF"/>
</linearGradient>
<linearGradient id="paint13_linear_1339_9998" x1="415.884" y1="106.298" x2="561.319" y2="147.331" gradientUnits="userSpaceOnUse">
<stop stop-color="#5149F2"/>
<stop offset="1" stop-color="#F7F7FF"/>
</linearGradient>
<linearGradient id="paint14_linear_1339_9998" x1="415.884" y1="211.951" x2="561.319" y2="252.984" gradientUnits="userSpaceOnUse">
<stop stop-color="#5149F2"/>
<stop offset="1" stop-color="#F7F7FF"/>
</linearGradient>
<linearGradient id="paint15_linear_1339_9998" x1="635.775" y1="77.2633" x2="566.164" y2="-55.4213" gradientUnits="userSpaceOnUse">
<stop stop-color="#5149F2"/>
<stop offset="1" stop-color="#F7F7FF"/>
</linearGradient>
<linearGradient id="paint16_linear_1339_9998" x1="147.862" y1="267.641" x2="127.559" y2="228.941" gradientUnits="userSpaceOnUse">
<stop stop-color="#5149F2"/>
<stop offset="1" stop-color="#F7F7FF"/>
</linearGradient>
<linearGradient id="paint17_linear_1339_9998" x1="673.3" y1="563.334" x2="652.996" y2="524.634" gradientUnits="userSpaceOnUse">
<stop stop-color="#5149F2"/>
<stop offset="1" stop-color="#F7F7FF"/>
</linearGradient>
<linearGradient id="paint18_linear_1339_9998" x1="681.987" y1="351.506" x2="622.615" y2="332.2" gradientUnits="userSpaceOnUse">
<stop stop-color="#5149F2"/>
<stop offset="1" stop-color="#F7F7FF"/>
</linearGradient>
<linearGradient id="paint19_linear_1339_9998" x1="229.517" y1="603.371" x2="248.9" y2="544.024" gradientUnits="userSpaceOnUse">
<stop stop-color="#5149F2"/>
<stop offset="1" stop-color="#F7F7FF"/>
</linearGradient>
<linearGradient id="paint20_linear_1339_9998" x1="532.182" y1="105.454" x2="632.633" y2="304.22" gradientUnits="userSpaceOnUse">
<stop stop-color="#49E2F2"/>
<stop offset="1" stop-color="#31D9EB"/>
</linearGradient>
<linearGradient id="paint21_linear_1339_9998" x1="335.209" y1="24.5" x2="314.905" y2="-14.1997" gradientUnits="userSpaceOnUse">
<stop stop-color="#5149F2"/>
<stop offset="1" stop-color="#F7F7FF"/>
</linearGradient>
<linearGradient id="paint22_linear_1339_9998" x1="359.513" y1="444.47" x2="281.727" y2="366.96" gradientUnits="userSpaceOnUse">
<stop stop-color="#5149F2"/>
<stop offset="1" stop-color="#F7F7FF"/>
</linearGradient>
<linearGradient id="paint23_linear_1339_9998" x1="359.513" y1="536.916" x2="346.295" y2="466.932" gradientUnits="userSpaceOnUse">
<stop stop-color="#5149F2"/>
<stop offset="1" stop-color="#F7F7FF"/>
</linearGradient>
</defs>
</svg>
