<svg width="700" height="700" viewBox="0 0 700 700" fill="none" xmlns="http://www.w3.org/2000/svg">
<g clip-path="url(#clip0_1305_9592)">
<path d="M600 0H100C44.7715 0 0 44.7715 0 100V600C0 655.228 44.7715 700 100 700H600C655.228 700 700 655.228 700 600V100C700 44.7715 655.228 0 600 0Z" fill="#0085FF"/>
<path d="M515.727 239.257V185H219.673C194.068 190.064 185.889 208.813 185 217.554V488.837C185.007 517.774 239.232 525.008 251.679 502.401L313.023 377.611H417.931V324.259H296.131C264.837 324.259 257.902 369.473 239.232 402.027V239.257H515.727Z" fill="white"/>
</g>
<defs>
<clipPath id="clip0_1305_9592">
<rect width="700" height="700" fill="white"/>
</clipPath>
</defs>
</svg>
